<?xml version="1.0" encoding="UTF-8"?>
<svg version="1.1" xmlns="http://www.w3.org/2000/svg" width="699" height="750">
<path d="M0 0 C0.30287864 7.89317686 0.53299056 15.78388174 0.67355824 23.68145466 C0.74107306 27.3500438 0.83239236 31.0146262 0.98071289 34.6809082 C1.99298781 60.36522344 1.99298781 60.36522344 -2.75390625 66.27246094 C-5.84385333 69.21057821 -9.2298883 71.04586693 -13 73 C-14.90817032 74.50041566 -16.7893837 76.03664428 -18.625 77.625 C-20.41605121 79.08408914 -22.20770329 80.54244106 -24 82 C-32.61333717 89.03156692 -41.1973394 96.09845085 -49.77832031 103.16943359 C-53.3516205 106.11367588 -56.92584428 109.0567964 -60.5 112 C-61.91667137 113.16666096 -63.33333803 114.33332763 -64.75 115.5 C-107.25 150.5 -149.75 185.5 -192.25 220.5 C-192.9517334 221.07790283 -193.6534668 221.65580566 -194.37646484 222.2512207 C-195.78822989 223.4138412 -197.20001364 224.57643898 -198.61181641 225.73901367 C-202.22863422 228.71739759 -205.84509182 231.69621718 -209.4609375 234.67578125 C-216.32681051 240.3328738 -223.19738185 245.98381206 -230.0859375 251.61328125 C-235.99411667 256.4522859 -241.88460244 261.31283528 -247.77832031 266.16943359 C-251.3516205 269.11367588 -254.92584428 272.0567964 -258.5 275 C-259.91667137 276.16666096 -261.33333803 277.33332763 -262.75 278.5 C-310.91666667 318.16666667 -359.08333333 357.83333333 -407.25 397.5 C-407.9517334 398.07790283 -408.6534668 398.65580566 -409.37646484 399.2512207 C-410.78822989 400.4138412 -412.20001364 401.57643898 -413.61181641 402.73901367 C-417.9689473 406.32703199 -422.32567675 409.91553551 -426.6809082 413.50585938 C-428.13129066 414.70012111 -429.58293059 415.89285752 -431.03588867 417.08398438 C-434.08124373 419.5819357 -437.11630196 422.0847228 -440.08984375 424.66796875 C-449.4931417 432.72215652 -457.92915517 438.06144738 -470.6640625 437.45703125 C-478.35220388 436.40373788 -484.58306681 433.54290838 -490 428 C-496.98558255 418.77669602 -497.29167226 410.26081221 -497.23046875 399.0078125 C-497.22964575 397.51355512 -497.22962583 396.01929712 -497.23031616 394.52503967 C-497.22923674 390.30286851 -497.21450926 386.0808328 -497.19743729 381.8586998 C-497.18389208 378.13247876 -497.17772788 374.40625729 -497.17119122 370.68001842 C-497.14323777 355.45322294 -497.07355186 340.22663144 -497 325 C-496.99652243 324.27584805 -496.99304485 323.55169611 -496.9894619 322.80560017 C-496.86193029 296.26615105 -496.71714404 269.72680427 -496.5625 243.1875 C-496.5575727 242.34130757 -496.55264541 241.49511515 -496.5475688 240.62328053 C-496.12814794 168.74817541 -495.56013677 96.8741158 -495 25 C-459.45813193 24.95405063 -423.91626914 24.91889408 -388.37437739 24.89786934 C-384.16201978 24.89536844 -379.94966222 24.89277974 -375.73730469 24.89013672 C-374.89883002 24.8896121 -374.06035535 24.88908748 -373.19647236 24.88854696 C-359.68552354 24.87988484 -346.17459203 24.86413844 -332.66365342 24.84569441 C-318.76209708 24.82687783 -304.8605497 24.81585866 -290.95898116 24.81182301 C-282.40646082 24.8091021 -273.85398947 24.80056374 -265.30148424 24.78416707 C-259.4073144 24.77345436 -253.51316924 24.77043098 -247.61899041 24.77299725 C-244.23707687 24.7742568 -240.85531479 24.77141271 -237.47340584 24.76158905 C-183.3134875 24.61220612 -131.40894317 32.0662223 -81.140625 52.8984375 C-80.2340918 53.26372559 -79.32755859 53.62901367 -78.39355469 54.00537109 C-76.46962947 54.80484798 -74.58576285 55.70038411 -72.71875 56.625 C-69.73352384 57.33934666 -69.73352384 57.33934666 -66.703125 54.8515625 C-65.53422732 53.79547529 -64.38395051 52.71852559 -63.25 51.625 C-62.01027441 50.49482019 -60.76938408 49.36591672 -59.52734375 48.23828125 C-58.92519043 47.68092285 -58.32303711 47.12356445 -57.70263672 46.54931641 C-55.4854283 44.53176484 -53.16933103 42.66402646 -50.8125 40.8125 C-42.74122504 34.42600573 -34.8201761 27.85463207 -26.875 21.3125 C-25.8065686 20.43319824 -25.8065686 20.43319824 -24.71655273 19.53613281 C-20.85972999 16.36068352 -17.00831838 13.17893628 -13.1640625 9.98828125 C-11.99254639 9.01797974 -11.99254639 9.01797974 -10.79736328 8.02807617 C-9.28627001 6.77632569 -7.77678174 5.52263469 -6.26904297 4.2668457 C-5.59244629 3.70698975 -4.91584961 3.14713379 -4.21875 2.5703125 C-3.3205957 1.82418701 -3.3205957 1.82418701 -2.40429688 1.06298828 C-1 0 -1 0 0 0 Z M-448 70 C-448.42819717 113.65004985 -448.42819717 113.65004985 -448.77734375 157.30078125 C-448.78252478 158.04044199 -448.78770582 158.78010273 -448.79304385 159.54217744 C-449.09726421 203.34012604 -449.08215094 247.13870979 -449.0625 290.9375 C-449.06207577 291.91110159 -449.06165154 292.88470318 -449.06121445 293.88780785 C-449.05011995 318.92521478 -449.02999748 343.96260864 -449 369 C-444.69434928 366.17283843 -440.7039318 363.18047414 -436.8125 359.8125 C-435.66597832 358.83131364 -434.51883309 357.85085548 -433.37109375 356.87109375 C-432.5200708 356.1438208 -432.5200708 356.1438208 -431.65185547 355.40185547 C-427.48903125 351.86905372 -423.2357237 348.44464001 -419 345 C-410.38666283 337.96843308 -401.8026606 330.90154915 -393.22167969 323.83056641 C-389.6483795 320.88632412 -386.07415572 317.9432036 -382.5 315 C-381.08332863 313.83333904 -379.66666197 312.66667237 -378.25 311.5 C-375.41666667 309.16666667 -372.58333333 306.83333333 -369.75 304.5 C-369.0482666 303.92209717 -368.3465332 303.34419434 -367.62353516 302.7487793 C-366.21177011 301.5861588 -364.79998636 300.42356102 -363.38818359 299.26098633 C-359.77136578 296.28260241 -356.15490818 293.30378282 -352.5390625 290.32421875 C-345.67318949 284.6671262 -338.80261815 279.01618794 -331.9140625 273.38671875 C-326.00588333 268.5477141 -320.11539756 263.68716472 -314.22167969 258.83056641 C-310.6483795 255.88632412 -307.07415572 252.9432036 -303.5 250 C-302.08332863 248.83333904 -300.66666197 247.66667237 -299.25 246.5 C-273.75 225.5 -248.25 204.5 -222.75 183.5 C-222.0482666 182.92209717 -221.3465332 182.34419434 -220.62353516 181.7487793 C-219.21177011 180.5861588 -217.79998636 179.42356102 -216.38818359 178.26098633 C-212.77136578 175.28260241 -209.15490818 172.30378282 -205.5390625 169.32421875 C-198.67318949 163.6671262 -191.80261815 158.01618794 -184.9140625 152.38671875 C-179.00588333 147.5477141 -173.11539756 142.68716472 -167.22167969 137.83056641 C-163.6483795 134.88632412 -160.07415572 131.9432036 -156.5 129 C-155.08332863 127.83333904 -153.66666197 126.66667237 -152.25 125.5 C-149.41666667 123.16666667 -146.58333333 120.83333333 -143.75 118.5 C-143.04762207 117.9215332 -142.34524414 117.34306641 -141.62158203 116.74707031 C-140.21645917 115.5899864 -138.8111877 114.43308291 -137.40576172 113.27636719 C-133.68618484 110.21460997 -129.96985689 107.14901186 -126.2578125 104.078125 C-125.48244141 103.43746094 -124.70707031 102.79679687 -123.90820312 102.13671875 C-122.41897194 100.90609657 -120.93064682 99.67437686 -119.44335938 98.44140625 C-118.43885742 97.61189453 -118.43885742 97.61189453 -117.4140625 96.765625 C-116.8257666 96.27868164 -116.2374707 95.79173828 -115.63134766 95.29003906 C-114.14598689 94.11544369 -112.57562535 93.0504169 -111 92 C-111 91.34 -111 90.68 -111 90 C-137.23798938 80.71684785 -163.21924142 73.86540702 -191 71 C-191.75883862 70.91163156 -192.51767723 70.82326311 -193.29951096 70.73221684 C-204.44765016 69.5943448 -215.66117484 69.86812941 -226.85253906 69.88647461 C-229.26807148 69.88675699 -231.68360398 69.88659775 -234.09913635 69.8860321 C-239.95294213 69.88577575 -245.80673139 69.89009098 -251.6605334 69.89646976 C-258.47808425 69.90364847 -265.29563283 69.90511755 -272.11318693 69.90625793 C-284.26898356 69.90844106 -296.42477344 69.91508103 -308.58056641 69.92456055 C-320.38167284 69.93375384 -332.18277743 69.94082528 -343.98388672 69.94506836 C-345.07687857 69.94546244 -345.07687857 69.94546244 -346.19195107 69.94586449 C-349.8478009 69.94716962 -353.50365074 69.94843331 -357.1595006 69.94967639 C-387.4396719 69.96002597 -417.71983501 69.97769896 -448 70 Z " fill="#FFC1CF" transform="translate(545,48)"/>
<path d="M0 0 C3.41179019 1.62174178 5.83948858 3.49021177 8.625 6.0625 C12.11384327 9.26874183 15.62930937 12.43346519 19.1875 15.5625 C22.79289527 18.80903789 26.05484843 22.15698765 29.17578125 25.8671875 C31.27250393 28.31860203 33.47965762 30.6482442 35.6875 33 C91.31375177 94.11290786 113.96559171 180.23171845 110.87548828 261.26513672 C107.76926676 324.39189418 86.4319668 389.11707959 47 439 C46.00226563 440.28583984 46.00226563 440.28583984 44.984375 441.59765625 C40.90777014 446.78971008 36.61582952 451.73671101 32.16796875 456.61328125 C30.16306865 458.82047758 28.2005476 461.05731156 26.25 463.3125 C24.26652523 465.60112473 22.24610506 467.77702651 20.0625 469.875 C17.76784154 471.74563699 17.76784154 471.74563699 18 474 C19.44683052 475.50273886 19.44683052 475.50273886 21.375 477.0625 C24.62941067 479.82817409 27.83413833 482.63308192 31 485.5 C36.32334693 490.29907792 41.68863339 495.0407795 47.15234375 499.6796875 C53.6752574 505.22567765 60.06659203 510.86520568 66.31958008 516.71411133 C69.57331665 519.7383702 72.90240919 522.60000498 76.375 525.375 C82.38741859 530.1990196 87.93718757 535.47524754 93.54296875 540.7578125 C97.92253747 544.88156253 102.43096633 548.83608317 107.03125 552.7109375 C108.70226323 554.12334154 110.35339205 555.55921804 112 557 C112 557.33 112 557.66 112 558 C102.87227515 558.32665341 93.74660629 558.57423776 84.61427975 558.72537041 C80.3718345 558.797971 76.13342965 558.89612453 71.89331055 559.05615234 C40.68547036 560.20372151 40.68547036 560.20372151 32.38648987 553.15200806 C30.1182171 550.79274059 28.13432695 548.34744822 26.25985718 545.66673279 C24.34541113 543.1340092 21.95802088 541.33854675 19.4375 539.4375 C13.75802767 534.90239896 8.50563477 529.96275942 3.20703125 524.99609375 C-1.4639332 520.61883286 -6.29747541 516.4485711 -11.171875 512.30078125 C-18.01518479 506.46981787 -24.73983217 500.54591666 -31.34375 494.4453125 C-35.86298847 490.28495473 -40.50178609 486.27314465 -45.1796875 482.29296875 C-52.02119707 476.4655094 -58.74252108 470.54343269 -65.34375 464.4453125 C-69.85086728 460.29611335 -74.47519731 456.29299196 -79.14453125 452.328125 C-85.66848253 446.77933276 -92.06221199 441.13848837 -98.31738281 435.28808594 C-101.59294973 432.24378242 -104.94531514 429.36033232 -108.4375 426.5625 C-114.15073515 421.97687705 -119.45201937 417.00254458 -124.79296875 411.99609375 C-129.4639332 407.61883286 -134.29747541 403.4485711 -139.171875 399.30078125 C-146.01518479 393.46981787 -152.73983217 387.54591666 -159.34375 381.4453125 C-163.86298847 377.28495473 -168.50178609 373.27314465 -173.1796875 369.29296875 C-180.02119707 363.4655094 -186.74252108 357.54343269 -193.34375 351.4453125 C-197.86298847 347.28495473 -202.50178609 343.27314465 -207.1796875 339.29296875 C-214.02119707 333.4655094 -220.74252108 327.54343269 -227.34375 321.4453125 C-231.86298847 317.28495473 -236.50178609 313.27314465 -241.1796875 309.29296875 C-248.02119707 303.4655094 -254.74252108 297.54343269 -261.34375 291.4453125 C-265.87510677 287.27379877 -270.52830509 283.25320506 -275.21484375 279.2578125 C-282.59567516 272.96114231 -289.86836213 266.57857207 -297 260 C-294.26625185 256.3634792 -291.4454341 253.56054579 -287.875 250.75 C-284.12307841 247.74547315 -280.48426366 244.68169614 -276.9375 241.4375 C-273.54119338 238.3661988 -270.12820597 235.32425832 -266.625 232.375 C-265.83351563 231.70210937 -265.04203125 231.02921875 -264.2265625 230.3359375 C-262 229 -262 229 -260.02734375 229.0078125 C-257.18075098 230.40094268 -255.22880469 232.31330568 -252.9375 234.5 C-249.29278974 237.92467074 -245.60152807 241.19169951 -241.6875 244.3125 C-235.94021553 248.94820366 -230.59031566 253.95767901 -225.20703125 259.00390625 C-220.5360668 263.38116714 -215.70252459 267.5514289 -210.828125 271.69921875 C-203.98481521 277.53018213 -197.26016783 283.45408334 -190.65625 289.5546875 C-186.13701153 293.71504527 -181.49821391 297.72685535 -176.8203125 301.70703125 C-169.97880293 307.5344906 -163.25747892 313.45656731 -156.65625 319.5546875 C-152.13701153 323.71504527 -147.49821391 327.72685535 -142.8203125 331.70703125 C-135.97880293 337.5344906 -129.25747892 343.45656731 -122.65625 349.5546875 C-118.13701153 353.71504527 -113.49821391 357.72685535 -108.8203125 361.70703125 C-101.97880293 367.5344906 -95.25747892 373.45656731 -88.65625 379.5546875 C-84.13701153 383.71504527 -79.49821391 387.72685535 -74.8203125 391.70703125 C-67.97880293 397.5344906 -61.25747892 403.45656731 -54.65625 409.5546875 C-50.11277737 413.73735495 -45.44524365 417.76682313 -40.75 421.77734375 C-39.54158804 422.80980381 -38.33325671 423.84235826 -37.125 424.875 C-36.52429688 425.38828857 -35.92359375 425.90157715 -35.3046875 426.43041992 C-30.12449537 430.86848225 -25.03916135 435.40205554 -20 440 C29.20941986 400.63246411 53.12983466 331.31568258 60 271 C67.15051862 199.67290221 47.3116948 124.93411063 2 69 C1.32251709 68.14897705 1.32251709 68.14897705 0.63134766 67.28076172 C-9.82876099 54.17123059 -21.73180683 41.7037637 -35.19140625 31.6640625 C-35.78824219 31.11492187 -36.38507813 30.56578125 -37 30 C-37 29.01 -37 28.02 -37 27 C-35.64916992 25.68823242 -35.64916992 25.68823242 -33.73046875 24.35546875 C-32.65708252 23.59689575 -32.65708252 23.59689575 -31.56201172 22.82299805 C-30.77842285 22.28328369 -29.99483398 21.74356934 -29.1875 21.1875 C-27.54741088 20.03233709 -25.90811574 18.87604622 -24.26953125 17.71875 C-22.98103271 16.81382812 -22.98103271 16.81382812 -21.66650391 15.890625 C-17.19102087 12.71738377 -12.78450757 9.45148461 -8.375 6.1875 C-6.75783177 4.99346349 -5.14064601 3.79945071 -3.5234375 2.60546875 C-2.34886413 1.73710657 -1.1743458 0.86866991 0 0 Z " fill="#FFC1CF" transform="translate(535,145)"/>
<path d="M0 0 C0.62777344 0.46792969 1.25554687 0.93585937 1.90234375 1.41796875 C3.04316406 2.26294922 3.04316406 2.26294922 4.20703125 3.125 C10.30956716 8.1238858 16.14702188 13.32971672 21.88867188 18.73706055 C25.69474329 22.32089898 29.57525217 25.76471069 33.64453125 29.05078125 C34.90234375 30.41796875 34.90234375 30.41796875 34.90234375 33.41796875 C-27.67432749 67.82934627 -93.83937542 75.81071993 -164.1205759 75.62075663 C-169.62308298 75.60807175 -175.12559335 75.60706503 -180.62811279 75.60470581 C-191.00053783 75.59854233 -201.37291963 75.58220265 -211.7453258 75.56200683 C-223.57403902 75.53948595 -235.40275454 75.52861411 -247.23148394 75.51861596 C-271.52023738 75.49783053 -295.80893171 75.46122027 -320.09765625 75.41796875 C-320.09765625 60.56796875 -320.09765625 45.71796875 -320.09765625 30.41796875 C-310.99465942 30.39609497 -310.99465942 30.39609497 -301.70776367 30.3737793 C-281.57530621 30.32326587 -261.44292428 30.25678825 -241.31054211 30.18225384 C-229.11369382 30.13748279 -216.91687352 30.09802619 -204.7199707 30.0715332 C-194.07652709 30.04840051 -183.43317345 30.01483553 -172.78980142 29.96926719 C-167.16569852 29.94553869 -161.54168359 29.92667766 -155.91753197 29.92035484 C-103.67650615 29.85377827 -52.21712851 24.98616727 -5.03125 0.47265625 C-2.09765625 -0.58203125 -2.09765625 -0.58203125 0 0 Z " fill="#FFC1CF" transform="translate(459.09765625,627.58203125)"/>
</svg>
